<svg xmlns="http://www.w3.org/2000/svg" xmlns:xlink="http://www.w3.org/1999/xlink" version="1.1" x="0px" y="0px" viewBox="0 0 100 100" enable-background="new 0 0 100 100" xml:space="preserve"><path d="M94,32.1L94,32.1l-5.1-0.8l-2.4-1.5c-3-1.8-7.3-1.4-10.4,0.7h-4.7v0l0,0l-1.2,1.2l1.2,1.2l0,0v0h1.7l-4.9,4  c-2.9,2.4-8.6,5.1-11.7,2.9l-3-3.3c-3.7-6.5-9.9-10.6-16.1-10.4c-5.8,0.2-10.8,4.1-13.9,11c-4.5,9.8-9.5,10.8-11.5,10.8  c-2.6,0-4.8-1.7-5.9-4.4c-0.1-0.3-0.5-0.5-0.9-0.4c-0.3,0.1-0.5,0.5-0.4,0.9c1.3,3.2,4,5.2,7.1,5.2c0,0,0.1,0,0.1,0  c4.7,0,9.2-4.2,12.6-11.5c0.4-1,0.9-1.9,1.5-2.8l0,0.1c0.2-0.5,0.7-0.8,1.3-0.7c0.4,0.1,0.6,0.4,0.7,0.8c0,0.1,0,0.3,0,0.4  c0,0,0,0,0,0.1l0,0c0,0,0,0,0,0c0,3.9,2.6,7.2,6.1,8.4c1.4,0.8,2.2,2,2.6,3.3l1.2,3.3l-0.9,1l-2.8-0.3l-1.2,1.8l1.6,1.3l3.3-0.2  l1.1-0.7l0.6,1.5l-6.9,1.4L29.6,55l-1.9,1.3l1,1.8l4.1,1.1l8.7-1.1l2.1,2.2l-4.2,7.2l2.4,6.5l4.8,0v-1.6l-3-0.8l-1.1-3.7l4-4.4  l3.3,3.4h4.7l-0.1-1.4l-3.9-1.5l-2.1-2.6l2.1-2.3l5.8-1c2.2,0.2,4.4-0.1,6.2-1.2c0.7-0.4,1.3-0.9,1.9-1.5l0,0l14.2-13.9  c3.5-4,6-4.3,9.9-4.3h2.8c1.3,0,1.7-0.9,1.7-1.4h-0.7h-0.7v-0.7l-0.3,0.7h-4.4c0.2-0.5,0.6-1.1,1.8-1.1h3.5v0.9l0.4-0.9H94l0.4-0.4  l0,0l0.6-0.6v0v-1L94,32.1z M46.6,50.1l-2.2,2.6l0.1-2.3l1.9-1.1C46.5,49.5,46.5,49.8,46.6,50.1z"></path></svg>