<svg xmlns="http://www.w3.org/2000/svg" xmlns:xlink="http://www.w3.org/1999/xlink" version="1.1" x="0px" y="0px" viewBox="0 0 100 100" enable-background="new 0 0 100 100" xml:space="preserve"><g><path d="M14.405,24.767c0,2.358-1.914,4.271-4.276,4.271c-2.358,0-4.271-1.913-4.271-4.271c0-2.363,1.913-4.276,4.271-4.276   C12.492,20.49,14.405,22.403,14.405,24.767z"></path><path d="M93.41,57.285H82.143l2.154-6.797l-11.631,2.349v9.714l2.513,0.002v19.459c0,1.461,1.183,2.644,2.644,2.644   s2.644-1.183,2.644-2.644V62.572h9.342l-2.38,7.579c-0.438,1.392,0.337,2.877,1.731,3.315c0.263,0.081,0.531,0.12,0.791,0.12   c1.124,0,2.169-0.723,2.523-1.852l3.46-11.015c0.251-0.802,0.105-1.677-0.391-2.355C95.043,57.687,94.252,57.285,93.41,57.285z"></path><path d="M97.458,36.125l-7.055-6.43l0.133-6.731L74.357,39.62H22.685c0.002-0.059,0.022-0.099,0.022-0.16   c0-1.251-0.622-1.869-1.867-1.869h-7.788l-0.246-3.612c-0.081-1.084-0.531-1.995-1.37-2.74c-0.829-0.75-1.81-1.099-2.926-1.06   c-1.077,0.083-1.992,0.539-2.737,1.372c-0.748,0.829-1.099,1.802-1.057,2.926L5.461,47.12c0.081,1.075,0.531,1.975,1.335,2.705   c0.809,0.73,1.783,1.087,2.897,1.087h13.513l1.426,3.175c-2.233-1.155-4.758-1.817-7.441-1.817   c-9.008,0-16.336,7.331-16.336,16.339s7.328,16.336,16.336,16.336c9.007,0,16.335-7.328,16.335-16.336   c0-2.423-0.548-4.712-1.495-6.777l2.909-0.583v2.142h5.041v-3.149l2.612-0.521v1.805l-2.612,4.119l0.022,16.37   c0,1.461,1.183,2.644,2.644,2.644c1.461,0,2.644-1.183,2.644-2.644l0.02-13.265l-0.015-0.012l3.967-6.111l0.042,5.112l6.072,15.478   c0.528,1.357,2.059,2.034,3.418,1.508c1.365-0.526,2.039-2.059,1.51-3.421l-5.27-13.432l3.957-5.338l10.139,0.015V53.55   l-26.529,5.354l-0.04-1.967l26.568-5.334v-8.23H42.003c-1.967,0-3.635,0.701-5.007,2.1c-1.372,1.404-2.056,3.088-2.056,5.048v7.035   L32.214,58.1c-0.03-0.06-0.044-0.121-0.079-0.18l-5.548-11.686c-0.512-1.062-1.886-1.729-2.764-1.729H13.367l-0.066-3.118h7.54   c0.086,0,0.145-0.027,0.224-0.032v0.025h51.602v9.511l12.285-2.466l2.595-8.182l7.746,1.815c0.959,0.16,1.824-0.066,2.602-0.679   c0.779-0.615,1.163-1.404,1.163-2.368C99.057,37.785,98.523,36.821,97.458,36.125z M39.982,50.688l2.612-4.038v9.381l-2.612,0.521   V50.688z M17.191,55.771c3.425,0,6.524,1.37,8.825,3.563L5.469,63.429C7.465,58.928,11.958,55.771,17.191,55.771z M17.191,81.441   c-7.078,0-12.834-5.757-12.834-12.834c0-0.46,0.088-0.893,0.135-1.341l0.127-0.024c0.032,0,0.059,0.015,0.091,0.015   c0.118,0,0.238-0.012,0.359-0.036l23.361-4.67c0.984,1.812,1.594,3.854,1.594,6.057C30.025,75.685,24.269,81.441,17.191,81.441z"></path></g></svg>