<svg xmlns="http://www.w3.org/2000/svg" xmlns:xlink="http://www.w3.org/1999/xlink" version="1.1" x="0px" y="0px" viewBox="0 0 530.34 316.918" style="enable-background:new 0 0 530.34 316.918;" xml:space="preserve"><g><path d="M488.285,150.385c2.615,2.409,5.396,4.944,7.989,7.253c2.285-1.954,4.717-4.048,7.165-6.165   C500.063,151.26,494.846,150.908,488.285,150.385z"></path><path d="M342.614,124.878c-1.65,1.102-3.566,1.684-5.544,1.684c-3.353,0-6.464-1.663-8.324-4.448   c-6.037-9.048-10.234-17.999-13.145-26.34l-2.592,2.081c0.107,0.879,0.211,1.786,0.311,2.718c2.127,3.764,2.484,8.356,0.866,12.463   c0.572,19.954-3.079,42.893-22.774,43.456c-0.625,0.018-1.256,0.026-1.889,0.03l-5.556,9.724c-2.578,4.509-7.404,7.31-12.601,7.31   c-2.512,0-4.994-0.663-7.183-1.914c-3.363-1.921-5.778-5.038-6.797-8.775c-0.987-3.621-0.538-7.399,1.239-10.69   c-26.346-7.155-50.213-22.17-50.213-37.683c0-19.452,18.854-20.924,12.855-26.534c-1.89-0.536-3.818-1.004-5.748-1.361   c-13.655-2.523-54.886-5.091-64.184-0.937c-3.08,1.376-6.624,3.735-10.15,6.762c-12.821-3.087-33.864-7.531-44.882-6.445   c-13.951,1.374-47.358,17.646-58.52,18.556c-11.161,0.908-36.843-0.841-37.77,3.782c-0.927,4.623,49.696,35.5,75.799,21.197   c14.155-7.755,33.847-12.186,48.91-14.618c-0.232,0.615-0.468,1.23-0.666,1.85c-4.441,13.956,10.381,39.281,10.381,39.281   s5.779,23.508,0.681,29.064c-0.092,0.101-0.195,0.228-0.295,0.345c-4.175,0.168-9.974,0.567-16.104,1.503   c-11.854,1.809-65.411,48.441-65.411,48.441l-17.033-0.811v37.141c0,0,13.792-4.254,18.256-18.893   c4.464-14.637,46.626-30.131,46.626-30.131l13.058-1.386c-0.569,1.092-0.901,1.735-0.901,1.735l-9.539,8.072l-10.231,28.369   l-19.286,32.037l-15.722-1.988l-7.423,4.555l-0.073,18.051c0,0,22.203-3.172,33.305-13.957   c11.102-10.783,20.111-32.35,20.111-32.35l12.946-11.303l36.112-42.789c0,0,26.686,3.158,40.26-3.004   c13.575-6.162,23.788-18.795,23.788-18.795s67.313,39.346,89.447,38.777c14.946-0.384,33.125-7.404,43.363-11.927l7.132,10.341   c0,0,21.543,46.965,24.715,54.894c1.248,3.119,2.777,13.238,3.489,19.031c1.099,8.936,4.775,15.867,4.775,15.867l30.774-9.863   l-8.246-12.053l-13.699-3.805l-21.267-72.069c18.663,5.939,44.563,14.567,49.335,18.148c7.613,5.709,41.603,37.428,41.603,37.428   l6.816,21.799l22.484-1.613l-7.496-17.762l-16.354-14.533c0,0-31.918-37.318-40.199-44.402   c-8.281-7.084-40.882-27.449-40.882-27.449l8.859-46.019l9.64-3.493c-25.712-4.37-50.711-10.267-66.918-18.516   C344.297,123.535,343.524,124.27,342.614,124.878z"></path><path d="M524.801,138.159c-4.914,4.312-16.307,14.285-25.494,22.149c3.006,2.609,5.47,4.618,6.64,5.284   c4.547,2.586,25.311-11.459,24.361-16.832C530.038,147.233,527.826,143.177,524.801,138.159z"></path><ellipse transform="matrix(0.8328 -0.5536 0.5536 0.8328 47.6385 202.7179)" cx="359.406" cy="22.496" rx="22.493" ry="22.495"></ellipse><path d="M307.557,88.302c-1.634,0.216-3.76,0.485-6.27,0.781l7.397,6.369C308.326,92.811,307.938,90.39,307.557,88.302z"></path><path d="M291.848,152.452c4.831-0.268,8.596-2.173,11.471-5.851c4.659-5.956,6.478-15.829,6.821-26.16L291.848,152.452z"></path><path d="M282.187,110.904l-21.708-18.686c-3.176,0.095-6.376,0.15-9.562,0.15c-9.247,0-17.457-0.447-24.532-1.328   c-0.43,2.738-2.751,4.693-5.01,6.594c-3.993,3.359-8.964,7.541-8.964,16.857c0,12.801,22.419,27.33,48.224,34.131L282.187,110.904z   "></path><path d="M309.795,51.04c0.705-4.892,4.956-8.577,9.887-8.577c0.479,0,0.962,0.035,1.439,0.103c2.643,0.378,4.98,1.766,6.581,3.905   c1.599,2.14,2.271,4.773,1.889,7.418l-0.017,0.163c-0.027,0.236-0.063,0.6-0.103,1.093c-0.076,0.966-0.165,2.547-0.163,4.586   c0,1.088,0.026,2.297,0.086,3.602c5.979-3.811,9.918-9.92,8.504-15.921c-2.015-8.564-11.802-17.443-27.125-15.219   c-21.05,3.185-33.395,7.894-51.962,20.362c-12.883,10.151-9.301,20.719-5.002,28.813c0.152,0.288,0.303,0.567,0.452,0.841   c0.573,1.525,1.449,2.955,2.625,4.192c0.806,1.024,1.655,1.817,2.622,2.341l25.232,21.722l-24.218,42.382   c-3.427,5.994-1.345,13.631,4.651,17.055c1.957,1.119,4.089,1.65,6.192,1.65c4.339,0.001,8.555-2.262,10.863-6.3l29.332-51.334   c2.977-5.209,1.849-11.761-2.698-15.675l-23.081-19.868c7.904-3.558,16.362-6.227,24.054-8.459   c-0.397-3.93-0.529-7.374-0.529-10.186C309.31,54.74,309.715,51.616,309.795,51.04z"></path><path d="M481.08,147.781c0.092-1.1,1.061-1.918,2.161-1.823c0,0,0.001,0,0.002,0c0,0-0.001,0-0.001,0   c-16.83-1.428-40.24-3.816-63.694-7.515l24.865-9.01l32.988,10.784c0,0,2.549,2.42,6.136,5.766   c13.637,1.151,22.85,1.667,24.23,1.74c1.198-1.04,2.38-2.069,3.526-3.067c4.849-4.223,9.061-7.915,11.389-9.958   c-7.644-12.326-18.266-27.917-18.266-27.917l-3.406-12.916c0,0-12.537-21.149-25.209-31.487c-5.053-4.12-8.631-3.066-20.285-4.945   c-3.242-0.524-16.922-10.577-20.143-11.261c-14.256-3.021-16.652,2.379-16.652,2.379l15.385,10.071l-18.795,0.476l-73.665,15.78   l-9.285,7.45c2.312,8.701,6.281,18.605,13.017,28.683c1.661,2.488,2.046,5.454,1.329,8.138   c16.755,8.515,44.772,14.897,72.645,19.266v0.001c-1.092-0.173-2.117,0.571-2.288,1.663c-0.172,1.088,0.569,2.109,1.657,2.286   c0.003,0.001,0.005,0.002,0.007,0.002c23.656,3.737,47.225,6.141,64.164,7.578C481.798,149.841,480.985,148.877,481.08,147.781z    M478.543,92.589l14.084,10.663c0,0-6.17,6.289-12.379,1.711C474.039,100.385,478.543,92.589,478.543,92.589z"></path><path d="M343.717,112.12c-14.349-21.469-16.407-42.279-16.407-52.387c-0.002-2.076,0.086-3.688,0.168-4.744   c0.041-0.526,0.08-0.912,0.106-1.149c0.013-0.117,0.023-0.197,0.027-0.238c0.63-4.375-2.403-8.431-6.777-9.059   c-4.373-0.63-8.428,2.403-9.059,6.775c-0.045,0.32-0.466,3.368-0.468,8.414c0,12.195,2.464,36.339,19.101,61.271   c1.543,2.31,4.079,3.559,6.662,3.559c1.527,0,3.069-0.436,4.434-1.347C345.179,120.761,346.168,115.793,343.717,112.12z"></path></g></svg>